{
    "asset" : {
        "generator" : "Khronos glTF Blender I/O v1.6.16",
        "version" : "2.0"
    },
    "scene" : 0,
    "scenes" : [
        {
            "name" : "Scene",
            "nodes" : [
                0,
                1,
                2,
                3,
                4,
                5
            ]
        }
    ],
    "nodes" : [
        {
            "mesh" : 0,
            "name" : "Floor",
            "scale" : [
                22.624624252319336,
                22.624624252319336,
                22.624624252319336
            ]
        },
        {
            "mesh" : 1,
            "name" : "Cylinder guard 2",
            "translation" : [
                -21.392812728881836,
                0.9856999516487122,
                -21.392812728881836
            ]
        },
        {
            "mesh" : 2,
            "name" : "Cylinder guard",
            "translation" : [
                21.392812728881836,
                0.9856999516487122,
                -21.392812728881836
            ]
        },
        {
            "mesh" : 3,
            "name" : "Cylinder guard 4",
            "translation" : [
                21.392812728881836,
                0.9856999516487122,
                21.241090774536133
            ]
        },
        {
            "mesh" : 4,
            "name" : "Cylinder guard 3",
            "translation" : [
                -20.937646865844727,
                0.9856999516487122,
                21.241090774536133
            ]
        },
        {
            "mesh" : 5,
            "name" : "Cylinder sun",
            "rotation" : [
                0.3247174620628357,
                -0.419843465089798,
                0.16395536065101624,
                0.8315098881721497
            ],
            "translation" : [
                0,
                15.269500732421875,
                0
            ]
        }
    ],
    "materials" : [
        {
            "doubleSided" : true,
            "name" : "Floor",
            "pbrMetallicRoughness" : {
                "baseColorFactor" : [
                    0.038506802171468735,
                    0.00978151336312294,
                    0.0030128699727356434,
                    1
                ],
                "metallicFactor" : 0,
                "roughnessFactor" : 0.6102362275123596
            }
        },
        {
            "doubleSided" : true,
            "emissiveFactor" : [
                1,
                1,
                1
            ],
            "name" : "Floor-light",
            "pbrMetallicRoughness" : {
                "baseColorFactor" : [
                    0.800000011920929,
                    0.800000011920929,
                    0.800000011920929,
                    1
                ],
                "metallicFactor" : 0,
                "roughnessFactor" : 0.5
            }
        },
        {
            "doubleSided" : true,
            "emissiveFactor" : [
                0.5711249709129333,
                0.5711249709129333,
                0.022173894569277763
            ],
            "name" : "Cylinder guard",
            "pbrMetallicRoughness" : {
                "baseColorFactor" : [
                    0.5711249709129333,
                    0.5711249709129333,
                    0.022173894569277763,
                    1
                ],
                "metallicFactor" : 0,
                "roughnessFactor" : 0.5
            }
        },
        {
            "doubleSided" : true,
            "emissiveFactor" : [
                1,
                1,
                1
            ],
            "name" : "Cylinder sun",
            "pbrMetallicRoughness" : {
                "baseColorFactor" : [
                    0.800000011920929,
                    0.800000011920929,
                    0.800000011920929,
                    1
                ],
                "metallicFactor" : 0,
                "roughnessFactor" : 0.5
            }
        },
        {
            "doubleSided" : true,
            "name" : "Cylinder sun 2",
            "pbrMetallicRoughness" : {
                "baseColorFactor" : [
                    0.10061109066009521,
                    0.10061109066009521,
                    0.10061109066009521,
                    1
                ],
                "metallicFactor" : 0,
                "roughnessFactor" : 0.5
            }
        }
    ],
    "meshes" : [
        {
            "name" : "Plane",
            "primitives" : [
                {
                    "attributes" : {
                        "POSITION" : 0,
                        "NORMAL" : 1,
                        "TEXCOORD_0" : 2
                    },
                    "indices" : 3,
                    "material" : 0
                },
                {
                    "attributes" : {
                        "POSITION" : 4,
                        "NORMAL" : 5,
                        "TEXCOORD_0" : 6
                    },
                    "indices" : 7,
                    "material" : 1
                }
            ]
        },
        {
            "name" : "Cylinder",
            "primitives" : [
                {
                    "attributes" : {
                        "POSITION" : 8,
                        "NORMAL" : 9,
                        "TEXCOORD_0" : 10
                    },
                    "indices" : 11,
                    "material" : 2
                }
            ]
        },
        {
            "name" : "Cylinder.001",
            "primitives" : [
                {
                    "attributes" : {
                        "POSITION" : 12,
                        "NORMAL" : 13,
                        "TEXCOORD_0" : 14
                    },
                    "indices" : 11,
                    "material" : 2
                }
            ]
        },
        {
            "name" : "Cylinder.002",
            "primitives" : [
                {
                    "attributes" : {
                        "POSITION" : 15,
                        "NORMAL" : 16,
                        "TEXCOORD_0" : 17
                    },
                    "indices" : 11,
                    "material" : 2
                }
            ]
        },
        {
            "name" : "Cylinder.003",
            "primitives" : [
                {
                    "attributes" : {
                        "POSITION" : 18,
                        "NORMAL" : 19,
                        "TEXCOORD_0" : 20
                    },
                    "indices" : 11,
                    "material" : 2
                }
            ]
        },
        {
            "name" : "Cylinder.004",
            "primitives" : [
                {
                    "attributes" : {
                        "POSITION" : 21,
                        "NORMAL" : 22,
                        "TEXCOORD_0" : 23
                    },
                    "indices" : 24,
                    "material" : 3
                },
                {
                    "attributes" : {
                        "POSITION" : 25,
                        "NORMAL" : 26,
                        "TEXCOORD_0" : 27
                    },
                    "indices" : 28,
                    "material" : 4
                }
            ]
        }
    ],
    "accessors" : [
        {
            "bufferView" : 0,
            "componentType" : 5126,
            "count" : 3117,
            "max" : [
                1,
                0.35829958319664,
                1
            ],
            "min" : [
                -1,
                0,
                -1
            ],
            "type" : "VEC3"
        },
        {
            "bufferView" : 1,
            "componentType" : 5126,
            "count" : 3117,
            "type" : "VEC3"
        },
        {
            "bufferView" : 2,
            "componentType" : 5126,
            "count" : 3117,
            "type" : "VEC2"
        },
        {
            "bufferView" : 3,
            "componentType" : 5123,
            "count" : 7266,
            "type" : "SCALAR"
        },
        {
            "bufferView" : 4,
            "componentType" : 5126,
            "count" : 399,
            "max" : [
                0.8181818127632141,
                0.35829958319664,
                0.8787878751754761
            ],
            "min" : [
                -0.8181818127632141,
                0,
                -0.939393937587738
            ],
            "type" : "VEC3"
        },
        {
            "bufferView" : 5,
            "componentType" : 5126,
            "count" : 399,
            "type" : "VEC3"
        },
        {
            "bufferView" : 6,
            "componentType" : 5126,
            "count" : 399,
            "type" : "VEC2"
        },
        {
            "bufferView" : 7,
            "componentType" : 5123,
            "count" : 612,
            "type" : "SCALAR"
        },
        {
            "bufferView" : 8,
            "componentType" : 5126,
            "count" : 42,
            "max" : [
                0.9749279022216797,
                1,
                0.9009688496589661
            ],
            "min" : [
                -0.9749279022216797,
                -1,
                -1
            ],
            "type" : "VEC3"
        },
        {
            "bufferView" : 9,
            "componentType" : 5126,
            "count" : 42,
            "type" : "VEC3"
        },
        {
            "bufferView" : 10,
            "componentType" : 5126,
            "count" : 42,
            "type" : "VEC2"
        },
        {
            "bufferView" : 11,
            "componentType" : 5123,
            "count" : 72,
            "type" : "SCALAR"
        },
        {
            "bufferView" : 12,
            "componentType" : 5126,
            "count" : 42,
            "max" : [
                0.9749279022216797,
                1,
                0.9009688496589661
            ],
            "min" : [
                -0.9749279022216797,
                -1,
                -1
            ],
            "type" : "VEC3"
        },
        {
            "bufferView" : 13,
            "componentType" : 5126,
            "count" : 42,
            "type" : "VEC3"
        },
        {
            "bufferView" : 14,
            "componentType" : 5126,
            "count" : 42,
            "type" : "VEC2"
        },
        {
            "bufferView" : 15,
            "componentType" : 5126,
            "count" : 42,
            "max" : [
                0.9749279022216797,
                1,
                0.9009688496589661
            ],
            "min" : [
                -0.9749279022216797,
                -1,
                -1
            ],
            "type" : "VEC3"
        },
        {
            "bufferView" : 16,
            "componentType" : 5126,
            "count" : 42,
            "type" : "VEC3"
        },
        {
            "bufferView" : 17,
            "componentType" : 5126,
            "count" : 42,
            "type" : "VEC2"
        },
        {
            "bufferView" : 18,
            "componentType" : 5126,
            "count" : 42,
            "max" : [
                0.9749279022216797,
                1,
                0.9009688496589661
            ],
            "min" : [
                -0.9749279022216797,
                -1,
                -1
            ],
            "type" : "VEC3"
        },
        {
            "bufferView" : 19,
            "componentType" : 5126,
            "count" : 42,
            "type" : "VEC3"
        },
        {
            "bufferView" : 20,
            "componentType" : 5126,
            "count" : 42,
            "type" : "VEC2"
        },
        {
            "bufferView" : 21,
            "componentType" : 5126,
            "count" : 168,
            "max" : [
                0.7890503406524658,
                0.934703528881073,
                0.9111167788505554
            ],
            "min" : [
                -0.7890503406524658,
                -0.9216415882110596,
                -0.9111167788505554
            ],
            "type" : "VEC3"
        },
        {
            "bufferView" : 22,
            "componentType" : 5126,
            "count" : 168,
            "type" : "VEC3"
        },
        {
            "bufferView" : 23,
            "componentType" : 5126,
            "count" : 168,
            "type" : "VEC2"
        },
        {
            "bufferView" : 24,
            "componentType" : 5123,
            "count" : 312,
            "type" : "SCALAR"
        },
        {
            "bufferView" : 25,
            "componentType" : 5126,
            "count" : 276,
            "max" : [
                0.866025447845459,
                1,
                1
            ],
            "min" : [
                -0.866025447845459,
                -1,
                -1
            ],
            "type" : "VEC3"
        },
        {
            "bufferView" : 26,
            "componentType" : 5126,
            "count" : 276,
            "type" : "VEC3"
        },
        {
            "bufferView" : 27,
            "componentType" : 5126,
            "count" : 276,
            "type" : "VEC2"
        },
        {
            "bufferView" : 28,
            "componentType" : 5123,
            "count" : 396,
            "type" : "SCALAR"
        }
    ],
    "bufferViews" : [
        {
            "buffer" : 0,
            "byteLength" : 37404,
            "byteOffset" : 0
        },
        {
            "buffer" : 0,
            "byteLength" : 37404,
            "byteOffset" : 37404
        },
        {
            "buffer" : 0,
            "byteLength" : 24936,
            "byteOffset" : 74808
        },
        {
            "buffer" : 0,
            "byteLength" : 14532,
            "byteOffset" : 99744
        },
        {
            "buffer" : 0,
            "byteLength" : 4788,
            "byteOffset" : 114276
        },
        {
            "buffer" : 0,
            "byteLength" : 4788,
            "byteOffset" : 119064
        },
        {
            "buffer" : 0,
            "byteLength" : 3192,
            "byteOffset" : 123852
        },
        {
            "buffer" : 0,
            "byteLength" : 1224,
            "byteOffset" : 127044
        },
        {
            "buffer" : 0,
            "byteLength" : 504,
            "byteOffset" : 128268
        },
        {
            "buffer" : 0,
            "byteLength" : 504,
            "byteOffset" : 128772
        },
        {
            "buffer" : 0,
            "byteLength" : 336,
            "byteOffset" : 129276
        },
        {
            "buffer" : 0,
            "byteLength" : 144,
            "byteOffset" : 129612
        },
        {
            "buffer" : 0,
            "byteLength" : 504,
            "byteOffset" : 129756
        },
        {
            "buffer" : 0,
            "byteLength" : 504,
            "byteOffset" : 130260
        },
        {
            "buffer" : 0,
            "byteLength" : 336,
            "byteOffset" : 130764
        },
        {
            "buffer" : 0,
            "byteLength" : 504,
            "byteOffset" : 131100
        },
        {
            "buffer" : 0,
            "byteLength" : 504,
            "byteOffset" : 131604
        },
        {
            "buffer" : 0,
            "byteLength" : 336,
            "byteOffset" : 132108
        },
        {
            "buffer" : 0,
            "byteLength" : 504,
            "byteOffset" : 132444
        },
        {
            "buffer" : 0,
            "byteLength" : 504,
            "byteOffset" : 132948
        },
        {
            "buffer" : 0,
            "byteLength" : 336,
            "byteOffset" : 133452
        },
        {
            "buffer" : 0,
            "byteLength" : 2016,
            "byteOffset" : 133788
        },
        {
            "buffer" : 0,
            "byteLength" : 2016,
            "byteOffset" : 135804
        },
        {
            "buffer" : 0,
            "byteLength" : 1344,
            "byteOffset" : 137820
        },
        {
            "buffer" : 0,
            "byteLength" : 624,
            "byteOffset" : 139164
        },
        {
            "buffer" : 0,
            "byteLength" : 3312,
            "byteOffset" : 139788
        },
        {
            "buffer" : 0,
            "byteLength" : 3312,
            "byteOffset" : 143100
        },
        {
            "buffer" : 0,
            "byteLength" : 2208,
            "byteOffset" : 146412
        },
        {
            "buffer" : 0,
            "byteLength" : 792,
            "byteOffset" : 148620
        }
    ],
    "buffers" : [
        {
            "byteLength" : 149412,
            "uri" : "data:application/octet-stream;base64,"
        }
    ]
}
