{
  "accessors": [
    {
      "bufferView": 2,
      "componentType": 5126,
      "count": 2754,
      "max": [
        1.0,
        0.35829958319664,
        1.0
      ],
      "min": [
        -1.0,
        0.0,
        -1.0
      ],
      "type": "VEC3"
    },
    {
      "bufferView": 2,
      "byteOffset": 33048,
      "componentType": 5126,
      "count": 2754,
      "max": [
        1.0,
        1.0,
        1.0
      ],
      "min": [
        -1.0,
        -0.3952707052230835,
        -1.0
      ],
      "type": "VEC3"
    },
    {
      "bufferView": 1,
      "componentType": 5126,
      "count": 2754,
      "max": [
        1.0,
        1.0
      ],
      "min": [
        0.0,
        0.0
      ],
      "type": "VEC2"
    },
    {
      "bufferView": 0,
      "componentType": 5125,
      "count": 7266,
      "type": "SCALAR"
    },
    {
      "bufferView": 2,
      "byteOffset": 66096,
      "componentType": 5126,
      "count": 380,
      "max": [
        0.8181818127632141,
        0.35829958319664,
        0.8787878751754761
      ],
      "min": [
        -0.8181818127632141,
        0.0,
        -0.939393937587738
      ],
      "type": "VEC3"
    },
    {
      "bufferView": 2,
      "byteOffset": 70656,
      "componentType": 5126,
      "count": 380,
      "max": [
        1.0,
        1.0,
        1.0
      ],
      "min": [
        -1.0,
        0.0,
        -1.0
      ],
      "type": "VEC3"
    },
    {
      "bufferView": 1,
      "byteOffset": 22032,
      "componentType": 5126,
      "count": 380,
      "max": [
        0.9090908765792847,
        0.939393937587738
      ],
      "min": [
        0.09090908616781235,
        0.03030306100845337
      ],
      "type": "VEC2"
    },
    {
      "bufferView": 0,
      "byteOffset": 29064,
      "componentType": 5125,
      "count": 612,
      "type": "SCALAR"
    },
    {
      "bufferView": 2,
      "byteOffset": 75216,
      "componentType": 5126,
      "count": 42,
      "max": [
        0.9749279022216797,
        1.0,
        0.9009688496589661
      ],
      "min": [
        -0.9749279022216797,
        -1.0,
        -1.0
      ],
      "type": "VEC3"
    },
    {
      "bufferView": 2,
      "byteOffset": 75720,
      "componentType": 5126,
      "count": 42,
      "max": [
        0.9749279618263245,
        1.0,
        1.0
      ],
      "min": [
        -0.9749280214309692,
        -1.0,
        -0.9009689688682556
      ],
      "type": "VEC3"
    },
    {
      "bufferView": 1,
      "byteOffset": 25072,
      "componentType": 5126,
      "count": 42,
      "max": [
        1.0,
        0.9662325382232666
      ],
      "min": [
        2.9802322387695313e-08,
        0.0
      ],
      "type": "VEC2"
    },
    {
      "bufferView": 0,
      "byteOffset": 31512,
      "componentType": 5125,
      "count": 72,
      "type": "SCALAR"
    },
    {
      "bufferView": 2,
      "byteOffset": 76224,
      "componentType": 5126,
      "count": 42,
      "max": [
        0.9749279022216797,
        1.0,
        0.9009688496589661
      ],
      "min": [
        -0.9749279022216797,
        -1.0,
        -1.0
      ],
      "type": "VEC3"
    },
    {
      "bufferView": 2,
      "byteOffset": 76728,
      "componentType": 5126,
      "count": 42,
      "max": [
        0.9749279618263245,
        1.0,
        1.0
      ],
      "min": [
        -0.9749280214309692,
        -1.0,
        -0.9009689688682556
      ],
      "type": "VEC3"
    },
    {
      "bufferView": 1,
      "byteOffset": 25408,
      "componentType": 5126,
      "count": 42,
      "max": [
        1.0,
        0.9662325382232666
      ],
      "min": [
        2.9802322387695313e-08,
        0.0
      ],
      "type": "VEC2"
    },
    {
      "bufferView": 0,
      "byteOffset": 31800,
      "componentType": 5125,
      "count": 72,
      "type": "SCALAR"
    },
    {
      "bufferView": 2,
      "byteOffset": 77232,
      "componentType": 5126,
      "count": 42,
      "max": [
        0.9749279022216797,
        1.0,
        0.9009688496589661
      ],
      "min": [
        -0.9749279022216797,
        -1.0,
        -1.0
      ],
      "type": "VEC3"
    },
    {
      "bufferView": 2,
      "byteOffset": 77736,
      "componentType": 5126,
      "count": 42,
      "max": [
        0.9749279618263245,
        1.0,
        1.0
      ],
      "min": [
        -0.9749280214309692,
        -1.0,
        -0.9009689688682556
      ],
      "type": "VEC3"
    },
    {
      "bufferView": 1,
      "byteOffset": 25744,
      "componentType": 5126,
      "count": 42,
      "max": [
        1.0,
        0.9662325382232666
      ],
      "min": [
        2.9802322387695313e-08,
        0.0
      ],
      "type": "VEC2"
    },
    {
      "bufferView": 0,
      "byteOffset": 32088,
      "componentType": 5125,
      "count": 72,
      "type": "SCALAR"
    },
    {
      "bufferView": 2,
      "byteOffset": 78240,
      "componentType": 5126,
      "count": 42,
      "max": [
        0.9749279022216797,
        1.0,
        0.9009688496589661
      ],
      "min": [
        -0.9749279022216797,
        -1.0,
        -1.0
      ],
      "type": "VEC3"
    },
    {
      "bufferView": 2,
      "byteOffset": 78744,
      "componentType": 5126,
      "count": 42,
      "max": [
        0.9749279618263245,
        1.0,
        1.0
      ],
      "min": [
        -0.9749280214309692,
        -1.0,
        -0.9009689688682556
      ],
      "type": "VEC3"
    },
    {
      "bufferView": 1,
      "byteOffset": 26080,
      "componentType": 5126,
      "count": 42,
      "max": [
        1.0,
        0.9662325382232666
      ],
      "min": [
        2.9802322387695313e-08,
        0.0
      ],
      "type": "VEC2"
    },
    {
      "bufferView": 0,
      "byteOffset": 32376,
      "componentType": 5125,
      "count": 72,
      "type": "SCALAR"
    },
    {
      "bufferView": 2,
      "byteOffset": 79248,
      "componentType": 5126,
      "count": 168,
      "max": [
        0.7890503406524658,
        0.934703528881073,
        0.9111167788505554
      ],
      "min": [
        -0.7890503406524658,
        -0.9216415882110596,
        -0.9111167788505554
      ],
      "type": "VEC3"
    },
    {
      "bufferView": 2,
      "byteOffset": 81264,
      "componentType": 5126,
      "count": 168,
      "max": [
        1.0,
        1.0,
        0.8660255074501038
      ],
      "min": [
        -1.0,
        -1.0,
        -0.8660253882408142
      ],
      "type": "VEC3"
    },
    {
      "bufferView": 1,
      "byteOffset": 26416,
      "componentType": 5126,
      "count": 168,
      "max": [
        1.0,
        0.944761335849762
      ],
      "min": [
        -8.940696716308594e-08,
        0.0
      ],
      "type": "VEC2"
    },
    {
      "bufferView": 0,
      "byteOffset": 32664,
      "componentType": 5125,
      "count": 312,
      "type": "SCALAR"
    },
    {
      "bufferView": 2,
      "byteOffset": 83280,
      "componentType": 5126,
      "count": 276,
      "max": [
        0.866025447845459,
        1.0,
        1.0
      ],
      "min": [
        -0.866025447845459,
        -1.0,
        -1.0
      ],
      "type": "VEC3"
    },
    {
      "bufferView": 2,
      "byteOffset": 86592,
      "componentType": 5126,
      "count": 276,
      "max": [
        0.7892686128616333,
        0.8177874088287354,
        0.8944271802902222
      ],
      "min": [
        -0.7892684936523438,
        -0.8008117079734802,
        -0.8944270610809326
      ],
      "type": "VEC3"
    },
    {
      "bufferView": 1,
      "byteOffset": 27760,
      "componentType": 5126,
      "count": 276,
      "max": [
        1.0,
        0.944761335849762
      ],
      "min": [
        -8.940696716308594e-08,
        0.0
      ],
      "type": "VEC2"
    },
    {
      "bufferView": 0,
      "byteOffset": 33912,
      "componentType": 5125,
      "count": 396,
      "type": "SCALAR"
    }
  ],
  "asset": {
    "extras": {
      "author": "Nick Anderson Azemar (https://sketchfab.com/newnick1996)",
      "license": "CC-BY-4.0 (http://creativecommons.org/licenses/by/4.0/)",
      "source": "https://sketchfab.com/3d-models/level-4-cylinder-world-e3adb40bf8924991ae4a360b71101f29",
      "title": "Level 4 - Cylinder World"
    },
    "generator": "Sketchfab-11.53.2",
    "version": "2.0"
  },
  "bufferViews": [
    {
      "buffer": 0,
      "byteLength": 35496,
      "name": "floatBufferViews",
      "target": 34963
    },
    {
      "buffer": 0,
      "byteLength": 29968,
      "byteOffset": 35496,
      "byteStride": 8,
      "name": "floatBufferViews",
      "target": 34962
    },
    {
      "buffer": 0,
      "byteLength": 89904,
      "byteOffset": 65464,
      "byteStride": 12,
      "name": "floatBufferViews",
      "target": 34962
    }
  ],
  "buffers": [
    {
      "byteLength": 155368,
      "uri": "scene.bin"
    }
  ],
  "materials": [
    {
      "doubleSided": true,
      "name": "Floor",
      "pbrMetallicRoughness": {
        "baseColorFactor": [
          0.0385068,
          0.00978151,
          0.0030128700000000017,
          1.0
        ],
        "metallicFactor": 0.0,
        "roughnessFactor": 0.7435409040606112
      }
    },
    {
      "doubleSided": true,
      "emissiveFactor": [
        1.0,
        1.0,
        1.0
      ],
      "name": "Floor-light",
      "pbrMetallicRoughness": {
        "baseColorFactor": [
          0.8,
          0.8,
          0.8,
          1.0
        ],
        "metallicFactor": 0.0,
        "roughnessFactor": 0.5
      }
    },
    {
      "doubleSided": true,
      "emissiveFactor": [
        0.571125,
        0.571125,
        0.0221739
      ],
      "name": "Cylinder_guard",
      "pbrMetallicRoughness": {
        "baseColorFactor": [
          0.571125,
          0.571125,
          0.0221739,
          1.0
        ],
        "metallicFactor": 0.0,
        "roughnessFactor": 0.5
      }
    },
    {
      "doubleSided": true,
      "emissiveFactor": [
        1.0,
        1.0,
        1.0
      ],
      "name": "Cylinder_sun",
      "pbrMetallicRoughness": {
        "baseColorFactor": [
          0.8,
          0.8,
          0.8,
          1.0
        ],
        "metallicFactor": 0.0,
        "roughnessFactor": 0.5
      }
    },
    {
      "doubleSided": true,
      "emissiveFactor": [
        1.0,
        1.0,
        1.0
      ],
      "name": "Cylinder_sun_2",
      "pbrMetallicRoughness": {
        "baseColorFactor": [
          0.100611,
          0.100611,
          0.100611,
          1.0
        ],
        "metallicFactor": 0.0,
        "roughnessFactor": 0.9320388792275232
      }
    }
  ],
  "meshes": [
    {
      "name": "Object_0",
      "primitives": [
        {
          "attributes": {
            "NORMAL": 1,
            "POSITION": 0,
            "TEXCOORD_0": 2
          },
          "indices": 3,
          "material": 0,
          "mode": 4
        }
      ]
    },
    {
      "name": "Object_1",
      "primitives": [
        {
          "attributes": {
            "NORMAL": 5,
            "POSITION": 4,
            "TEXCOORD_0": 6
          },
          "indices": 7,
          "material": 1,
          "mode": 4
        }
      ]
    },
    {
      "name": "Object_2",
      "primitives": [
        {
          "attributes": {
            "NORMAL": 9,
            "POSITION": 8,
            "TEXCOORD_0": 10
          },
          "indices": 11,
          "material": 2,
          "mode": 4
        }
      ]
    },
    {
      "name": "Object_3",
      "primitives": [
        {
          "attributes": {
            "NORMAL": 13,
            "POSITION": 12,
            "TEXCOORD_0": 14
          },
          "indices": 15,
          "material": 2,
          "mode": 4
        }
      ]
    },
    {
      "name": "Object_4",
      "primitives": [
        {
          "attributes": {
            "NORMAL": 17,
            "POSITION": 16,
            "TEXCOORD_0": 18
          },
          "indices": 19,
          "material": 2,
          "mode": 4
        }
      ]
    },
    {
      "name": "Object_5",
      "primitives": [
        {
          "attributes": {
            "NORMAL": 21,
            "POSITION": 20,
            "TEXCOORD_0": 22
          },
          "indices": 23,
          "material": 2,
          "mode": 4
        }
      ]
    },
    {
      "name": "Object_6",
      "primitives": [
        {
          "attributes": {
            "NORMAL": 25,
            "POSITION": 24,
            "TEXCOORD_0": 26
          },
          "indices": 27,
          "material": 3,
          "mode": 4
        }
      ]
    },
    {
      "name": "Object_7",
      "primitives": [
        {
          "attributes": {
            "NORMAL": 29,
            "POSITION": 28,
            "TEXCOORD_0": 30
          },
          "indices": 31,
          "material": 4,
          "mode": 4
        }
      ]
    }
  ],
  "nodes": [
    {
      "children": [
        1
      ],
      "matrix": [
        1.0,
        0.0,
        0.0,
        0.0,
        0.0,
        2.220446049250313e-16,
        -1.0,
        0.0,
        0.0,
        1.0,
        2.220446049250313e-16,
        0.0,
        0.0,
        0.0,
        0.0,
        1.0
      ],
      "name": "Sketchfab_model"
    },
    {
      "children": [
        2
      ],
      "name": "root"
    },
    {
      "children": [
        3,
        6,
        8,
        10,
        12,
        14
      ],
      "matrix": [
        1.0,
        0.0,
        0.0,
        0.0,
        0.0,
        2.220446049250313e-16,
        1.0,
        0.0,
        0.0,
        -1.0,
        2.220446049250313e-16,
        0.0,
        0.0,
        0.0,
        0.0,
        1.0
      ],
      "name": "GLTF_SceneRootNode"
    },
    {
      "children": [
        4,
        5
      ],
      "matrix": [
        22.624624252319336,
        0.0,
        0.0,
        0.0,
        0.0,
        22.624624252319336,
        0.0,
        0.0,
        0.0,
        0.0,
        22.624624252319336,
        0.0,
        0.0,
        0.0,
        0.0,
        1.0
      ],
      "name": "Floor_0"
    },
    {
      "mesh": 0,
      "name": "Object_4"
    },
    {
      "mesh": 1,
      "name": "Object_5"
    },
    {
      "children": [
        7
      ],
      "matrix": [
        1.0,
        0.0,
        0.0,
        0.0,
        0.0,
        1.0,
        0.0,
        0.0,
        0.0,
        0.0,
        1.0,
        0.0,
        -21.392812728881836,
        0.9856999516487122,
        -21.392812728881836,
        1.0
      ],
      "name": "Cylinder guard 2_1"
    },
    {
      "mesh": 2,
      "name": "Object_7"
    },
    {
      "children": [
        9
      ],
      "matrix": [
        1.0,
        0.0,
        0.0,
        0.0,
        0.0,
        1.0,
        0.0,
        0.0,
        0.0,
        0.0,
        1.0,
        0.0,
        21.392812728881836,
        0.9856999516487122,
        -21.392812728881836,
        1.0
      ],
      "name": "Cylinder guard_2"
    },
    {
      "mesh": 3,
      "name": "Object_9"
    },
    {
      "children": [
        11
      ],
      "matrix": [
        1.0,
        0.0,
        0.0,
        0.0,
        0.0,
        1.0,
        0.0,
        0.0,
        0.0,
        0.0,
        1.0,
        0.0,
        21.392812728881836,
        0.9856999516487122,
        21.241090774536133,
        1.0
      ],
      "name": "Cylinder guard 4_3"
    },
    {
      "mesh": 4,
      "name": "Object_11"
    },
    {
      "children": [
        13
      ],
      "matrix": [
        1.0,
        0.0,
        0.0,
        0.0,
        0.0,
        1.0,
        0.0,
        0.0,
        0.0,
        0.0,
        1.0,
        0.0,
        -20.937646865844727,
        0.9856999516487122,
        21.241090774536133,
        1.0
      ],
      "name": "Cylinder guard 3_4"
    },
    {
      "mesh": 5,
      "name": "Object_13"
    },
    {
      "children": [
        15,
        16
      ],
      "matrix": [
        0.5937002170994273,
        -1.6949499581642158e-09,
        0.8046863067159108,
        0.0,
        -0.5453220053192259,
        0.7353544243203001,
        0.4023403797124748,
        0.0,
        -0.5917296365154537,
        -0.6776827212144044,
        0.4365800804396931,
        0.0,
        0.0,
        15.269500732421875,
        0.0,
        1.0
      ],
      "name": "Cylinder sun_5"
    },
    {
      "mesh": 6,
      "name": "Object_15"
    },
    {
      "mesh": 7,
      "name": "Object_16"
    }
  ],
  "scene": 0,
  "scenes": [
    {
      "name": "Sketchfab_Scene",
      "nodes": [
        0
      ]
    }
  ]
}
