{
    "asset" : {
        "generator" : "Khronos glTF Blender I/O v1.6.16",
        "version" : "2.0"
    },
    "scene" : 0,
    "scenes" : [
        {
            "name" : "Scene",
            "nodes" : [
                0,
                1,
                2,
                3,
                4,
                5
            ]
        }
    ],
    "nodes" : [
        {
            "mesh" : 0,
            "name" : "Floor",
            "scale" : [
                226.4654998779297,
                226.4654998779297,
                226.4654998779297
            ],
            "translation" : [
                3.218003511428833,
                13.677072525024414,
                277.524658203125
            ]
        },
        {
            "mesh" : 1,
            "name" : "Cone guard 2",
            "rotation" : [
                0,
                0.7078775763511658,
                0,
                0.7063351273536682
            ],
            "scale" : [
                16.43120002746582,
                16.43120002746582,
                16.43120002746582
            ],
            "translation" : [
                -286.5962219238281,
                29.551603317260742,
                -18.625194549560547
            ]
        },
        {
            "mesh" : 2,
            "name" : "Cone guard 1",
            "rotation" : [
                0,
                0.7078775763511658,
                0,
                0.7063351273536682
            ],
            "scale" : [
                16.43120002746582,
                16.43120002746582,
                16.43120002746582
            ],
            "translation" : [
                302.0964050292969,
                29.551603317260742,
                -17.724197387695312
            ]
        },
        {
            "mesh" : 3,
            "name" : "Cone guard 4",
            "rotation" : [
                0,
                0.7078775763511658,
                0,
                0.7063351273536682
            ],
            "scale" : [
                16.43120002746582,
                16.43120002746582,
                16.43120002746582
            ],
            "translation" : [
                -286.5962219238281,
                29.551603317260742,
                570.6263427734375
            ]
        },
        {
            "mesh" : 4,
            "name" : "Cone guard 3",
            "rotation" : [
                0,
                0.7078775763511658,
                0,
                0.7063351273536682
            ],
            "scale" : [
                16.43120002746582,
                16.43120002746582,
                16.43120002746582
            ],
            "translation" : [
                297.2492980957031,
                29.551603317260742,
                570.6263427734375
            ]
        },
        {
            "mesh" : 5,
            "name" : "Cone sun",
            "scale" : [
                13.381681442260742,
                13.381681442260742,
                13.381681442260742
            ],
            "translation" : [
                -4.369060516357422,
                92.57797241210938,
                262.04705810546875
            ]
        }
    ],
    "materials" : [
        {
            "doubleSided" : true,
            "name" : "Floor",
            "pbrMetallicRoughness" : {
                "baseColorFactor" : [
                    0.03594069927930832,
                    0.008943147957324982,
                    0,
                    1
                ],
                "metallicFactor" : 0,
                "roughnessFactor" : 0.5
            }
        },
        {
            "doubleSided" : true,
            "emissiveFactor" : [
                1,
                1,
                1
            ],
            "name" : "Floor-light",
            "pbrMetallicRoughness" : {
                "baseColorFactor" : [
                    0.800000011920929,
                    0.800000011920929,
                    0.800000011920929,
                    1
                ],
                "metallicFactor" : 0,
                "roughnessFactor" : 0.5
            }
        },
        {
            "doubleSided" : true,
            "emissiveFactor" : [
                0.8195590972900391,
                0.8366447687149048,
                0.16325265169143677
            ],
            "name" : "Cone guard",
            "pbrMetallicRoughness" : {
                "baseColorFactor" : [
                    0.800000011920929,
                    0.800000011920929,
                    0.800000011920929,
                    1
                ],
                "metallicFactor" : 0,
                "roughnessFactor" : 0.5
            }
        },
        {
            "doubleSided" : true,
            "name" : "Cone sun",
            "pbrMetallicRoughness" : {
                "baseColorFactor" : [
                    0.790976345539093,
                    0.8000000715255737,
                    0.14877398312091827,
                    1
                ],
                "metallicFactor" : 0,
                "roughnessFactor" : 0.5
            }
        }
    ],
    "meshes" : [
        {
            "name" : "Plane",
            "primitives" : [
                {
                    "attributes" : {
                        "POSITION" : 0,
                        "NORMAL" : 1,
                        "TEXCOORD_0" : 2
                    },
                    "indices" : 3,
                    "material" : 0
                },
                {
                    "attributes" : {
                        "POSITION" : 4,
                        "NORMAL" : 5,
                        "TEXCOORD_0" : 6
                    },
                    "indices" : 7,
                    "material" : 1
                }
            ]
        },
        {
            "name" : "Cone.052",
            "primitives" : [
                {
                    "attributes" : {
                        "POSITION" : 8,
                        "NORMAL" : 9,
                        "TEXCOORD_0" : 10
                    },
                    "indices" : 11,
                    "material" : 2
                }
            ]
        },
        {
            "name" : "Cone.016",
            "primitives" : [
                {
                    "attributes" : {
                        "POSITION" : 12,
                        "NORMAL" : 13,
                        "TEXCOORD_0" : 14
                    },
                    "indices" : 11,
                    "material" : 2
                }
            ]
        },
        {
            "name" : "Cone.032",
            "primitives" : [
                {
                    "attributes" : {
                        "POSITION" : 15,
                        "NORMAL" : 16,
                        "TEXCOORD_0" : 17
                    },
                    "indices" : 11,
                    "material" : 2
                }
            ]
        },
        {
            "name" : "Cone.046",
            "primitives" : [
                {
                    "attributes" : {
                        "POSITION" : 18,
                        "NORMAL" : 19,
                        "TEXCOORD_0" : 20
                    },
                    "indices" : 11,
                    "material" : 2
                }
            ]
        },
        {
            "name" : "Sphere.003",
            "primitives" : [
                {
                    "attributes" : {
                        "POSITION" : 21,
                        "NORMAL" : 22,
                        "TEXCOORD_0" : 23
                    },
                    "indices" : 24,
                    "material" : 3
                }
            ]
        }
    ],
    "accessors" : [
        {
            "bufferView" : 0,
            "componentType" : 5126,
            "count" : 2739,
            "max" : [
                1.3735846281051636,
                0.10279811173677444,
                1.3735841512680054
            ],
            "min" : [
                -1.3735846281051636,
                1.6283019022012013e-07,
                -1.3735851049423218
            ],
            "type" : "VEC3"
        },
        {
            "bufferView" : 1,
            "componentType" : 5126,
            "count" : 2739,
            "type" : "VEC3"
        },
        {
            "bufferView" : 2,
            "componentType" : 5126,
            "count" : 2739,
            "type" : "VEC2"
        },
        {
            "bufferView" : 3,
            "componentType" : 5123,
            "count" : 5916,
            "type" : "SCALAR"
        },
        {
            "bufferView" : 4,
            "componentType" : 5126,
            "count" : 263,
            "max" : [
                0.9443394541740417,
                0.20520730316638947,
                1.1160370111465454
            ],
            "min" : [
                -1.201886534690857,
                1.6283019022012013e-07,
                -1.2018870115280151
            ],
            "type" : "VEC3"
        },
        {
            "bufferView" : 5,
            "componentType" : 5126,
            "count" : 263,
            "type" : "VEC3"
        },
        {
            "bufferView" : 6,
            "componentType" : 5126,
            "count" : 263,
            "type" : "VEC2"
        },
        {
            "bufferView" : 7,
            "componentType" : 5123,
            "count" : 312,
            "type" : "SCALAR"
        },
        {
            "bufferView" : 8,
            "componentType" : 5126,
            "count" : 12,
            "max" : [
                0.8660253882408142,
                1,
                0.5000000596046448
            ],
            "min" : [
                -0.866025447845459,
                -1,
                -1
            ],
            "type" : "VEC3"
        },
        {
            "bufferView" : 9,
            "componentType" : 5126,
            "count" : 12,
            "type" : "VEC3"
        },
        {
            "bufferView" : 10,
            "componentType" : 5126,
            "count" : 12,
            "type" : "VEC2"
        },
        {
            "bufferView" : 11,
            "componentType" : 5123,
            "count" : 12,
            "type" : "SCALAR"
        },
        {
            "bufferView" : 12,
            "componentType" : 5126,
            "count" : 12,
            "max" : [
                0.8660253882408142,
                1,
                0.5000000596046448
            ],
            "min" : [
                -0.866025447845459,
                -1,
                -1
            ],
            "type" : "VEC3"
        },
        {
            "bufferView" : 13,
            "componentType" : 5126,
            "count" : 12,
            "type" : "VEC3"
        },
        {
            "bufferView" : 14,
            "componentType" : 5126,
            "count" : 12,
            "type" : "VEC2"
        },
        {
            "bufferView" : 15,
            "componentType" : 5126,
            "count" : 12,
            "max" : [
                0.8660253882408142,
                1,
                0.5000000596046448
            ],
            "min" : [
                -0.866025447845459,
                -1,
                -1
            ],
            "type" : "VEC3"
        },
        {
            "bufferView" : 16,
            "componentType" : 5126,
            "count" : 12,
            "type" : "VEC3"
        },
        {
            "bufferView" : 17,
            "componentType" : 5126,
            "count" : 12,
            "type" : "VEC2"
        },
        {
            "bufferView" : 18,
            "componentType" : 5126,
            "count" : 12,
            "max" : [
                0.8660253882408142,
                1,
                0.5000000596046448
            ],
            "min" : [
                -0.866025447845459,
                -1,
                -1
            ],
            "type" : "VEC3"
        },
        {
            "bufferView" : 19,
            "componentType" : 5126,
            "count" : 12,
            "type" : "VEC3"
        },
        {
            "bufferView" : 20,
            "componentType" : 5126,
            "count" : 12,
            "type" : "VEC2"
        },
        {
            "bufferView" : 21,
            "componentType" : 5126,
            "count" : 48,
            "max" : [
                1.1951152086257935,
                1.8447880744934082,
                1.195115327835083
            ],
            "min" : [
                -1.1951152086257935,
                -1.8447887897491455,
                -1.195115089416504
            ],
            "type" : "VEC3"
        },
        {
            "bufferView" : 22,
            "componentType" : 5126,
            "count" : 48,
            "type" : "VEC3"
        },
        {
            "bufferView" : 23,
            "componentType" : 5126,
            "count" : 48,
            "type" : "VEC2"
        },
        {
            "bufferView" : 24,
            "componentType" : 5123,
            "count" : 48,
            "type" : "SCALAR"
        }
    ],
    "bufferViews" : [
        {
            "buffer" : 0,
            "byteLength" : 32868,
            "byteOffset" : 0
        },
        {
            "buffer" : 0,
            "byteLength" : 32868,
            "byteOffset" : 32868
        },
        {
            "buffer" : 0,
            "byteLength" : 21912,
            "byteOffset" : 65736
        },
        {
            "buffer" : 0,
            "byteLength" : 11832,
            "byteOffset" : 87648
        },
        {
            "buffer" : 0,
            "byteLength" : 3156,
            "byteOffset" : 99480
        },
        {
            "buffer" : 0,
            "byteLength" : 3156,
            "byteOffset" : 102636
        },
        {
            "buffer" : 0,
            "byteLength" : 2104,
            "byteOffset" : 105792
        },
        {
            "buffer" : 0,
            "byteLength" : 624,
            "byteOffset" : 107896
        },
        {
            "buffer" : 0,
            "byteLength" : 144,
            "byteOffset" : 108520
        },
        {
            "buffer" : 0,
            "byteLength" : 144,
            "byteOffset" : 108664
        },
        {
            "buffer" : 0,
            "byteLength" : 96,
            "byteOffset" : 108808
        },
        {
            "buffer" : 0,
            "byteLength" : 24,
            "byteOffset" : 108904
        },
        {
            "buffer" : 0,
            "byteLength" : 144,
            "byteOffset" : 108928
        },
        {
            "buffer" : 0,
            "byteLength" : 144,
            "byteOffset" : 109072
        },
        {
            "buffer" : 0,
            "byteLength" : 96,
            "byteOffset" : 109216
        },
        {
            "buffer" : 0,
            "byteLength" : 144,
            "byteOffset" : 109312
        },
        {
            "buffer" : 0,
            "byteLength" : 144,
            "byteOffset" : 109456
        },
        {
            "buffer" : 0,
            "byteLength" : 96,
            "byteOffset" : 109600
        },
        {
            "buffer" : 0,
            "byteLength" : 144,
            "byteOffset" : 109696
        },
        {
            "buffer" : 0,
            "byteLength" : 144,
            "byteOffset" : 109840
        },
        {
            "buffer" : 0,
            "byteLength" : 96,
            "byteOffset" : 109984
        },
        {
            "buffer" : 0,
            "byteLength" : 576,
            "byteOffset" : 110080
        },
        {
            "buffer" : 0,
            "byteLength" : 576,
            "byteOffset" : 110656
        },
        {
            "buffer" : 0,
            "byteLength" : 384,
            "byteOffset" : 111232
        },
        {
            "buffer" : 0,
            "byteLength" : 96,
            "byteOffset" : 111616
        }
    ],
    "buffers" : [
        {
            "byteLength" : 111712,
            "uri" : "data:application/octet-stream;base64,"
        }
    ]
}
