{
    "asset" : {
        "generator" : "Khronos glTF Blender I/O v1.6.16",
        "version" : "2.0"
    },
    "scene" : 0,
    "scenes" : [
        {
            "name" : "Scene",
            "nodes" : [
                0
            ]
        }
    ],
    "nodes" : [
        {
            "mesh" : 0,
            "name" : "Power coin"
        }
    ],
    "materials" : [
        {
            "doubleSided" : true,
            "name" : "Power Coin",
            "pbrMetallicRoughness" : {
                "baseColorFactor" : [
                    1,
                    0.6795424222946167,
                    0,
                    1
                ],
                "roughnessFactor" : 0.1804979145526886
            }
        },
        {
            "doubleSided" : true,
            "emissiveFactor" : [
                1,
                1,
                1
            ],
            "name" : "Power Coin light",
            "pbrMetallicRoughness" : {
                "baseColorFactor" : [
                    0.7566790580749512,
                    0.6725017428398132,
                    0.6629365682601929,
                    1
                ],
                "metallicFactor" : 0,
                "roughnessFactor" : 0.5
            }
        }
    ],
    "meshes" : [
        {
            "name" : "Icosphere",
            "primitives" : [
                {
                    "attributes" : {
                        "POSITION" : 0,
                        "NORMAL" : 1,
                        "TEXCOORD_0" : 2
                    },
                    "indices" : 3,
                    "material" : 0
                },
                {
                    "attributes" : {
                        "POSITION" : 4,
                        "NORMAL" : 5,
                        "TEXCOORD_0" : 6
                    },
                    "indices" : 7,
                    "material" : 1
                }
            ]
        }
    ],
    "accessors" : [
        {
            "bufferView" : 0,
            "componentType" : 5126,
            "count" : 720,
            "max" : [
                0.12099073827266693,
                0.710979700088501,
                0.7352572083473206
            ],
            "min" : [
                -0.12288697063922882,
                -0.7099111080169678,
                -0.7352572083473206
            ],
            "type" : "VEC3"
        },
        {
            "bufferView" : 1,
            "componentType" : 5126,
            "count" : 720,
            "type" : "VEC3"
        },
        {
            "bufferView" : 2,
            "componentType" : 5126,
            "count" : 720,
            "type" : "VEC2"
        },
        {
            "bufferView" : 3,
            "componentType" : 5123,
            "count" : 1080,
            "type" : "SCALAR"
        },
        {
            "bufferView" : 4,
            "componentType" : 5126,
            "count" : 120,
            "max" : [
                0.12099073827266693,
                0.710979700088501,
                0.7352572083473206
            ],
            "min" : [
                -0.1215553730726242,
                -0.7099111080169678,
                -0.7352572083473206
            ],
            "type" : "VEC3"
        },
        {
            "bufferView" : 5,
            "componentType" : 5126,
            "count" : 120,
            "type" : "VEC3"
        },
        {
            "bufferView" : 6,
            "componentType" : 5126,
            "count" : 120,
            "type" : "VEC2"
        },
        {
            "bufferView" : 7,
            "componentType" : 5123,
            "count" : 168,
            "type" : "SCALAR"
        }
    ],
    "bufferViews" : [
        {
            "buffer" : 0,
            "byteLength" : 8640,
            "byteOffset" : 0
        },
        {
            "buffer" : 0,
            "byteLength" : 8640,
            "byteOffset" : 8640
        },
        {
            "buffer" : 0,
            "byteLength" : 5760,
            "byteOffset" : 17280
        },
        {
            "buffer" : 0,
            "byteLength" : 2160,
            "byteOffset" : 23040
        },
        {
            "buffer" : 0,
            "byteLength" : 1440,
            "byteOffset" : 25200
        },
        {
            "buffer" : 0,
            "byteLength" : 1440,
            "byteOffset" : 26640
        },
        {
            "buffer" : 0,
            "byteLength" : 960,
            "byteOffset" : 28080
        },
        {
            "buffer" : 0,
            "byteLength" : 336,
            "byteOffset" : 29040
        }
    ],
    "buffers" : [
        {
            "byteLength" : 29376,
            "uri" : "data:application/octet-stream;base64,"
        }
    ]
}
