{
    "asset" : {
        "generator" : "Khronos glTF Blender I/O v1.6.16",
        "version" : "2.0"
    },
    "scene" : 0,
    "scenes" : [
        {
            "name" : "Scene",
            "nodes" : [
                0,
                1,
                2,
                3,
                4,
                5
            ]
        }
    ],
    "nodes" : [
        {
            "mesh" : 0,
            "name" : "Plane",
            "scale" : [
                19.358577728271484,
                19.358577728271484,
                19.358577728271484
            ]
        },
        {
            "mesh" : 1,
            "name" : "Cube guard 3",
            "translation" : [
                -32.14958953857422,
                0.9953058362007141,
                -32.17346954345703
            ]
        },
        {
            "mesh" : 2,
            "name" : "Cube guard 2",
            "translation" : [
                32.237388610839844,
                0.9953058362007141,
                -32.325191497802734
            ]
        },
        {
            "mesh" : 3,
            "name" : "Cube guard",
            "translation" : [
                32.38911437988281,
                0.9953058362007141,
                32.30833435058594
            ]
        },
        {
            "mesh" : 4,
            "name" : "Cube guard 4",
            "translation" : [
                -32.628639221191406,
                0.9953058362007141,
                32.611778259277344
            ]
        },
        {
            "mesh" : 5,
            "name" : "Cube sun",
            "rotation" : [
                0.8148858547210693,
                0.3508366644382477,
                0.26497596502304077,
                0.3777070939540863
            ],
            "scale" : [
                1.5097578763961792,
                1.5097577571868896,
                1.5097577571868896
            ],
            "translation" : [
                -0.2291717529296875,
                10.28022289276123,
                0.39616167545318604
            ]
        }
    ],
    "materials" : [
        {
            "doubleSided" : true,
            "name" : "Floor",
            "pbrMetallicRoughness" : {
                "baseColorFactor" : [
                    0.05041419342160225,
                    0.01808307319879532,
                    0.01070318277925253,
                    1
                ],
                "metallicFactor" : 0,
                "roughnessFactor" : 0.5
            }
        },
        {
            "doubleSided" : true,
            "emissiveFactor" : [
                1,
                1,
                1
            ],
            "name" : "Floor-light",
            "pbrMetallicRoughness" : {
                "baseColorFactor" : [
                    0.800000011920929,
                    0.800000011920929,
                    0.800000011920929,
                    1
                ],
                "metallicFactor" : 0,
                "roughnessFactor" : 0.5
            }
        },
        {
            "doubleSided" : true,
            "emissiveFactor" : [
                1,
                0.7174909710884094,
                0.02087399922311306
            ],
            "name" : "Cube guard",
            "pbrMetallicRoughness" : {
                "baseColorFactor" : [
                    0.800000011920929,
                    0.800000011920929,
                    0.800000011920929,
                    1
                ],
                "metallicFactor" : 0,
                "roughnessFactor" : 0.5
            }
        },
        {
            "doubleSided" : true,
            "emissiveFactor" : [
                1,
                1,
                1
            ],
            "name" : "Cube sun",
            "pbrMetallicRoughness" : {
                "baseColorFactor" : [
                    0.800000011920929,
                    0.800000011920929,
                    0.800000011920929,
                    1
                ],
                "metallicFactor" : 0,
                "roughnessFactor" : 0.5
            }
        },
        {
            "doubleSided" : true,
            "emissiveFactor" : [
                1,
                0.7174910306930542,
                0.02087414264678955
            ],
            "name" : "Cube sun 2",
            "pbrMetallicRoughness" : {
                "baseColorFactor" : [
                    0.800000011920929,
                    0.800000011920929,
                    0.800000011920929,
                    1
                ],
                "metallicFactor" : 0,
                "roughnessFactor" : 0.5
            }
        }
    ],
    "meshes" : [
        {
            "name" : "Plane",
            "primitives" : [
                {
                    "attributes" : {
                        "POSITION" : 0,
                        "NORMAL" : 1,
                        "TEXCOORD_0" : 2
                    },
                    "indices" : 3,
                    "material" : 0
                },
                {
                    "attributes" : {
                        "POSITION" : 4,
                        "NORMAL" : 5,
                        "TEXCOORD_0" : 6
                    },
                    "indices" : 7,
                    "material" : 1
                }
            ]
        },
        {
            "name" : "Cube.001",
            "primitives" : [
                {
                    "attributes" : {
                        "POSITION" : 8,
                        "NORMAL" : 9,
                        "TEXCOORD_0" : 10
                    },
                    "indices" : 11,
                    "material" : 2
                }
            ]
        },
        {
            "name" : "Cube.002",
            "primitives" : [
                {
                    "attributes" : {
                        "POSITION" : 12,
                        "NORMAL" : 13,
                        "TEXCOORD_0" : 14
                    },
                    "indices" : 11,
                    "material" : 2
                }
            ]
        },
        {
            "name" : "Cube.003",
            "primitives" : [
                {
                    "attributes" : {
                        "POSITION" : 15,
                        "NORMAL" : 16,
                        "TEXCOORD_0" : 17
                    },
                    "indices" : 11,
                    "material" : 2
                }
            ]
        },
        {
            "name" : "Cube.004",
            "primitives" : [
                {
                    "attributes" : {
                        "POSITION" : 18,
                        "NORMAL" : 19,
                        "TEXCOORD_0" : 20
                    },
                    "indices" : 11,
                    "material" : 2
                }
            ]
        },
        {
            "name" : "Cube.005",
            "primitives" : [
                {
                    "attributes" : {
                        "POSITION" : 21,
                        "NORMAL" : 22,
                        "TEXCOORD_0" : 23
                    },
                    "indices" : 24,
                    "material" : 3
                },
                {
                    "attributes" : {
                        "POSITION" : 25,
                        "NORMAL" : 26,
                        "TEXCOORD_0" : 27
                    },
                    "indices" : 28,
                    "material" : 4
                }
            ]
        }
    ],
    "accessors" : [
        {
            "bufferView" : 0,
            "componentType" : 5126,
            "count" : 5006,
            "max" : [
                1.7847964763641357,
                0.3828328549861908,
                1.7847964763641357
            ],
            "min" : [
                -1.7847964763641357,
                0,
                -1.7847964763641357
            ],
            "type" : "VEC3"
        },
        {
            "bufferView" : 1,
            "componentType" : 5126,
            "count" : 5006,
            "type" : "VEC3"
        },
        {
            "bufferView" : 2,
            "componentType" : 5126,
            "count" : 5006,
            "type" : "VEC2"
        },
        {
            "bufferView" : 3,
            "componentType" : 5123,
            "count" : 11136,
            "type" : "SCALAR"
        },
        {
            "bufferView" : 4,
            "componentType" : 5126,
            "count" : 508,
            "max" : [
                1.545855164527893,
                0.5434346795082092,
                1.3025814294815063
            ],
            "min" : [
                -1.4636744260787964,
                0,
                -1.6274380683898926
            ],
            "type" : "VEC3"
        },
        {
            "bufferView" : 5,
            "componentType" : 5126,
            "count" : 508,
            "type" : "VEC3"
        },
        {
            "bufferView" : 6,
            "componentType" : 5126,
            "count" : 508,
            "type" : "VEC2"
        },
        {
            "bufferView" : 7,
            "componentType" : 5123,
            "count" : 864,
            "type" : "SCALAR"
        },
        {
            "bufferView" : 8,
            "componentType" : 5126,
            "count" : 24,
            "max" : [
                1,
                1,
                1
            ],
            "min" : [
                -1,
                -1,
                -1
            ],
            "type" : "VEC3"
        },
        {
            "bufferView" : 9,
            "componentType" : 5126,
            "count" : 24,
            "type" : "VEC3"
        },
        {
            "bufferView" : 10,
            "componentType" : 5126,
            "count" : 24,
            "type" : "VEC2"
        },
        {
            "bufferView" : 11,
            "componentType" : 5123,
            "count" : 36,
            "type" : "SCALAR"
        },
        {
            "bufferView" : 12,
            "componentType" : 5126,
            "count" : 24,
            "max" : [
                1,
                1,
                1
            ],
            "min" : [
                -1,
                -1,
                -1
            ],
            "type" : "VEC3"
        },
        {
            "bufferView" : 13,
            "componentType" : 5126,
            "count" : 24,
            "type" : "VEC3"
        },
        {
            "bufferView" : 14,
            "componentType" : 5126,
            "count" : 24,
            "type" : "VEC2"
        },
        {
            "bufferView" : 15,
            "componentType" : 5126,
            "count" : 24,
            "max" : [
                1,
                1,
                1
            ],
            "min" : [
                -1,
                -1,
                -1
            ],
            "type" : "VEC3"
        },
        {
            "bufferView" : 16,
            "componentType" : 5126,
            "count" : 24,
            "type" : "VEC3"
        },
        {
            "bufferView" : 17,
            "componentType" : 5126,
            "count" : 24,
            "type" : "VEC2"
        },
        {
            "bufferView" : 18,
            "componentType" : 5126,
            "count" : 24,
            "max" : [
                1,
                1,
                1
            ],
            "min" : [
                -1,
                -1,
                -1
            ],
            "type" : "VEC3"
        },
        {
            "bufferView" : 19,
            "componentType" : 5126,
            "count" : 24,
            "type" : "VEC3"
        },
        {
            "bufferView" : 20,
            "componentType" : 5126,
            "count" : 24,
            "type" : "VEC2"
        },
        {
            "bufferView" : 21,
            "componentType" : 5126,
            "count" : 28,
            "max" : [
                0.8598217964172363,
                0.9615345001220703,
                0.9022862315177917
            ],
            "min" : [
                -0.8393996357917786,
                -0.8806613087654114,
                -0.865898609161377
            ],
            "type" : "VEC3"
        },
        {
            "bufferView" : 22,
            "componentType" : 5126,
            "count" : 28,
            "type" : "VEC3"
        },
        {
            "bufferView" : 23,
            "componentType" : 5126,
            "count" : 28,
            "type" : "VEC2"
        },
        {
            "bufferView" : 24,
            "componentType" : 5123,
            "count" : 42,
            "type" : "SCALAR"
        },
        {
            "bufferView" : 25,
            "componentType" : 5126,
            "count" : 746,
            "max" : [
                1,
                1.0000001192092896,
                1
            ],
            "min" : [
                -0.9800745844841003,
                -1,
                -1
            ],
            "type" : "VEC3"
        },
        {
            "bufferView" : 26,
            "componentType" : 5126,
            "count" : 746,
            "type" : "VEC3"
        },
        {
            "bufferView" : 27,
            "componentType" : 5126,
            "count" : 746,
            "type" : "VEC2"
        },
        {
            "bufferView" : 28,
            "componentType" : 5123,
            "count" : 1146,
            "type" : "SCALAR"
        }
    ],
    "bufferViews" : [
        {
            "buffer" : 0,
            "byteLength" : 60072,
            "byteOffset" : 0
        },
        {
            "buffer" : 0,
            "byteLength" : 60072,
            "byteOffset" : 60072
        },
        {
            "buffer" : 0,
            "byteLength" : 40048,
            "byteOffset" : 120144
        },
        {
            "buffer" : 0,
            "byteLength" : 22272,
            "byteOffset" : 160192
        },
        {
            "buffer" : 0,
            "byteLength" : 6096,
            "byteOffset" : 182464
        },
        {
            "buffer" : 0,
            "byteLength" : 6096,
            "byteOffset" : 188560
        },
        {
            "buffer" : 0,
            "byteLength" : 4064,
            "byteOffset" : 194656
        },
        {
            "buffer" : 0,
            "byteLength" : 1728,
            "byteOffset" : 198720
        },
        {
            "buffer" : 0,
            "byteLength" : 288,
            "byteOffset" : 200448
        },
        {
            "buffer" : 0,
            "byteLength" : 288,
            "byteOffset" : 200736
        },
        {
            "buffer" : 0,
            "byteLength" : 192,
            "byteOffset" : 201024
        },
        {
            "buffer" : 0,
            "byteLength" : 72,
            "byteOffset" : 201216
        },
        {
            "buffer" : 0,
            "byteLength" : 288,
            "byteOffset" : 201288
        },
        {
            "buffer" : 0,
            "byteLength" : 288,
            "byteOffset" : 201576
        },
        {
            "buffer" : 0,
            "byteLength" : 192,
            "byteOffset" : 201864
        },
        {
            "buffer" : 0,
            "byteLength" : 288,
            "byteOffset" : 202056
        },
        {
            "buffer" : 0,
            "byteLength" : 288,
            "byteOffset" : 202344
        },
        {
            "buffer" : 0,
            "byteLength" : 192,
            "byteOffset" : 202632
        },
        {
            "buffer" : 0,
            "byteLength" : 288,
            "byteOffset" : 202824
        },
        {
            "buffer" : 0,
            "byteLength" : 288,
            "byteOffset" : 203112
        },
        {
            "buffer" : 0,
            "byteLength" : 192,
            "byteOffset" : 203400
        },
        {
            "buffer" : 0,
            "byteLength" : 336,
            "byteOffset" : 203592
        },
        {
            "buffer" : 0,
            "byteLength" : 336,
            "byteOffset" : 203928
        },
        {
            "buffer" : 0,
            "byteLength" : 224,
            "byteOffset" : 204264
        },
        {
            "buffer" : 0,
            "byteLength" : 84,
            "byteOffset" : 204488
        },
        {
            "buffer" : 0,
            "byteLength" : 8952,
            "byteOffset" : 204572
        },
        {
            "buffer" : 0,
            "byteLength" : 8952,
            "byteOffset" : 213524
        },
        {
            "buffer" : 0,
            "byteLength" : 5968,
            "byteOffset" : 222476
        },
        {
            "buffer" : 0,
            "byteLength" : 2292,
            "byteOffset" : 228444
        }
    ],
    "buffers" : [
        {
            "byteLength" : 230736,
            "uri" : "data:application/octet-stream;base64,"
        }
    ]
}
