{
  "accessors": [
    {
      "bufferView": 2,
      "componentType": 5126,
      "count": 2782,
      "max": [
        1.2827528715133667,
        0.09331566095352173,
        1.3328454494476318
      ],
      "min": [
        -1.395545244216919,
        -1.0,
        -1.2897053956985474
      ],
      "type": "VEC3"
    },
    {
      "bufferView": 2,
      "byteOffset": 33384,
      "componentType": 5126,
      "count": 2782,
      "max": [
        1.0,
        1.0,
        1.0
      ],
      "min": [
        -1.0,
        -1.0,
        -1.0
      ],
      "type": "VEC3"
    },
    {
      "bufferView": 1,
      "componentType": 5126,
      "count": 2782,
      "max": [
        0.9772835373878479,
        0.9870609641075134
      ],
      "min": [
        0.0373026505112648,
        0.019675493240356445
      ],
      "type": "VEC2"
    },
    {
      "bufferView": 0,
      "componentType": 5125,
      "count": 4152,
      "type": "SCALAR"
    },
    {
      "bufferView": 2,
      "byteOffset": 66768,
      "componentType": 5126,
      "count": 396,
      "max": [
        1.2747721672058105,
        0.09331566095352173,
        1.3205949068069458
      ],
      "min": [
        -1.3805800676345825,
        -4.265980990680873e-08,
        -1.2897053956985474
      ],
      "type": "VEC3"
    },
    {
      "bufferView": 2,
      "byteOffset": 71520,
      "componentType": 5126,
      "count": 396,
      "max": [
        1.9911333026811917e-07,
        1.0,
        7.775618371397286e-09
      ],
      "min": [
        -4.2498629682086175e-07,
        1.0,
        -7.775629029538322e-09
      ],
      "type": "VEC3"
    },
    {
      "bufferView": 1,
      "byteOffset": 22256,
      "componentType": 5126,
      "count": 396,
      "max": [
        0.9810706377029419,
        0.9870610237121582
      ],
      "min": [
        0.03832957148551941,
        0.024286746978759766
      ],
      "type": "VEC2"
    },
    {
      "bufferView": 0,
      "byteOffset": 16608,
      "componentType": 5125,
      "count": 666,
      "type": "SCALAR"
    },
    {
      "bufferView": 2,
      "byteOffset": 76272,
      "componentType": 5126,
      "count": 48,
      "max": [
        1.0,
        1.0,
        1.0000004768371582
      ],
      "min": [
        -1.0,
        -0.9999999403953552,
        -0.9999995231628418
      ],
      "type": "VEC3"
    },
    {
      "bufferView": 2,
      "byteOffset": 76848,
      "componentType": 5126,
      "count": 48,
      "max": [
        1.0,
        1.0,
        1.0
      ],
      "min": [
        -1.0,
        -1.0,
        -1.0
      ],
      "type": "VEC3"
    },
    {
      "bufferView": 1,
      "byteOffset": 25424,
      "componentType": 5126,
      "count": 48,
      "max": [
        0.875,
        1.0
      ],
      "min": [
        0.125,
        0.0
      ],
      "type": "VEC2"
    },
    {
      "bufferView": 0,
      "byteOffset": 19272,
      "componentType": 5125,
      "count": 78,
      "type": "SCALAR"
    },
    {
      "bufferView": 2,
      "byteOffset": 77424,
      "componentType": 5126,
      "count": 4,
      "max": [
        0.4113795757293701,
        0.05716067552566528,
        0.8129702806472778
      ],
      "min": [
        -0.4590773582458496,
        -0.6735087633132935,
        0.8129702806472778
      ],
      "type": "VEC3"
    },
    {
      "bufferView": 2,
      "byteOffset": 77472,
      "componentType": 5126,
      "count": 4,
      "max": [
        0.0,
        0.0,
        -1.0
      ],
      "min": [
        0.0,
        0.0,
        -1.0
      ],
      "type": "VEC3"
    },
    {
      "bufferView": 1,
      "byteOffset": 25808,
      "componentType": 5126,
      "count": 4,
      "max": [
        0.625,
        0.25
      ],
      "min": [
        0.375,
        0.0
      ],
      "type": "VEC2"
    },
    {
      "bufferView": 0,
      "byteOffset": 19584,
      "componentType": 5125,
      "count": 6,
      "type": "SCALAR"
    },
    {
      "bufferView": 2,
      "byteOffset": 77520,
      "componentType": 5126,
      "count": 66,
      "max": [
        0.9749277830123901,
        1.0000001192092896,
        0.9009689688682556
      ],
      "min": [
        -0.9749282598495483,
        -1.0000001192092896,
        -1.0000001192092896
      ],
      "type": "VEC3"
    },
    {
      "bufferView": 2,
      "byteOffset": 78312,
      "componentType": 5126,
      "count": 66,
      "max": [
        0.974928081035614,
        1.0,
        1.0
      ],
      "min": [
        -0.9749279618263245,
        -1.0,
        -0.9749259352684021
      ],
      "type": "VEC3"
    },
    {
      "bufferView": 1,
      "byteOffset": 25840,
      "componentType": 5126,
      "count": 66,
      "max": [
        1.0,
        0.9662325382232666
      ],
      "min": [
        2.9802322387695313e-08,
        0.0
      ],
      "type": "VEC2"
    },
    {
      "bufferView": 0,
      "byteOffset": 19608,
      "componentType": 5125,
      "count": 114,
      "type": "SCALAR"
    },
    {
      "bufferView": 2,
      "byteOffset": 79104,
      "componentType": 5126,
      "count": 4,
      "max": [
        -0.36938947439193726,
        0.3950293958187103,
        0.36645326018333435
      ],
      "min": [
        -0.47002357244491577,
        -0.0076726991683244705,
        -0.07164530456066132
      ],
      "type": "VEC3"
    },
    {
      "bufferView": 2,
      "byteOffset": 79152,
      "componentType": 5126,
      "count": 4,
      "max": [
        0.9749259948730469,
        0.0015553041594102979,
        -0.22252367436885834
      ],
      "min": [
        0.9749259948730469,
        0.0015553041594102979,
        -0.22252367436885834
      ],
      "type": "VEC3"
    },
    {
      "bufferView": 1,
      "byteOffset": 26368,
      "componentType": 5126,
      "count": 4,
      "max": [
        0.8144252300262451,
        0.25191813707351685
      ],
      "min": [
        0.7404308319091797,
        0.15595990419387817
      ],
      "type": "VEC2"
    },
    {
      "bufferView": 0,
      "byteOffset": 20064,
      "componentType": 5125,
      "count": 6,
      "type": "SCALAR"
    },
    {
      "bufferView": 2,
      "byteOffset": 79200,
      "componentType": 5126,
      "count": 84,
      "max": [
        0.8944252133369446,
        1.0,
        0.8506399989128113
      ],
      "min": [
        -0.8944247364997864,
        -1.0,
        -0.8506399989128113
      ],
      "type": "VEC3"
    },
    {
      "bufferView": 2,
      "byteOffset": 80208,
      "componentType": 5126,
      "count": 84,
      "max": [
        0.9830055236816406,
        1.0,
        1.0
      ],
      "min": [
        -0.9822462201118469,
        -1.0,
        -1.0
      ],
      "type": "VEC3"
    },
    {
      "bufferView": 1,
      "byteOffset": 26400,
      "componentType": 5126,
      "count": 84,
      "max": [
        1.0,
        1.0
      ],
      "min": [
        0.0,
        0.25
      ],
      "type": "VEC2"
    },
    {
      "bufferView": 0,
      "byteOffset": 20088,
      "componentType": 5125,
      "count": 102,
      "type": "SCALAR"
    },
    {
      "bufferView": 2,
      "byteOffset": 81216,
      "componentType": 5126,
      "count": 4,
      "max": [
        -0.26471805572509766,
        -0.007333964109420776,
        0.15859299898147583
      ],
      "min": [
        -0.26471805572509766,
        -0.3486728370189667,
        -0.22066360712051392
      ],
      "type": "VEC3"
    },
    {
      "bufferView": 2,
      "byteOffset": 81264,
      "componentType": 5126,
      "count": 4,
      "max": [
        1.0,
        0.0,
        -0.0
      ],
      "min": [
        1.0,
        0.0,
        -0.0
      ],
      "type": "VEC3"
    },
    {
      "bufferView": 1,
      "byteOffset": 27072,
      "componentType": 5126,
      "count": 4,
      "max": [
        0.625,
        0.75
      ],
      "min": [
        0.375,
        0.5
      ],
      "type": "VEC2"
    },
    {
      "bufferView": 0,
      "byteOffset": 20496,
      "componentType": 5125,
      "count": 6,
      "type": "SCALAR"
    },
    {
      "bufferView": 2,
      "byteOffset": 81312,
      "componentType": 5126,
      "count": 36,
      "max": [
        2.2516658306121826,
        2.359999895095825,
        1.3000000715255737
      ],
      "min": [
        -2.2516660690307617,
        -2.359999895095825,
        -2.5999999046325684
      ],
      "type": "VEC3"
    },
    {
      "bufferView": 2,
      "byteOffset": 81744,
      "componentType": 5126,
      "count": 36,
      "max": [
        1.0,
        1.0,
        0.9647752046585083
      ],
      "min": [
        -1.0,
        -1.0,
        -0.48205050826072693
      ],
      "type": "VEC3"
    },
    {
      "bufferView": 1,
      "byteOffset": 27104,
      "componentType": 5126,
      "count": 36,
      "max": [
        0.9578460454940796,
        1.0
      ],
      "min": [
        0.042153894901275635,
        0.25
      ],
      "type": "VEC2"
    },
    {
      "bufferView": 0,
      "byteOffset": 20520,
      "componentType": 5125,
      "count": 54,
      "type": "SCALAR"
    },
    {
      "bufferView": 2,
      "byteOffset": 82176,
      "componentType": 5126,
      "count": 4,
      "max": [
        0.4569072425365448,
        -1.030260443687439,
        -0.9339407086372375
      ],
      "min": [
        -0.48683980107307434,
        -1.882940649986267,
        -0.9339409470558167
      ],
      "type": "VEC3"
    },
    {
      "bufferView": 2,
      "byteOffset": 82224,
      "componentType": 5126,
      "count": 4,
      "max": [
        2.5262974645556824e-07,
        0.0,
        1.0
      ],
      "min": [
        2.5262974645556824e-07,
        0.0,
        1.0
      ],
      "type": "VEC3"
    },
    {
      "bufferView": 1,
      "byteOffset": 27392,
      "componentType": 5126,
      "count": 4,
      "max": [
        0.625,
        0.25
      ],
      "min": [
        0.375,
        0.0
      ],
      "type": "VEC2"
    },
    {
      "bufferView": 0,
      "byteOffset": 20736,
      "componentType": 5125,
      "count": 6,
      "type": "SCALAR"
    }
  ],
  "asset": {
    "extras": {
      "author": "Nick Anderson Azemar (https://sketchfab.com/newnick1996)",
      "license": "CC-BY-4.0 (http://creativecommons.org/licenses/by/4.0/)",
      "source": "https://sketchfab.com/3d-models/level-1-intro-worlds-cd8db73e5e8a472ea57e7e6d06fc1cdc",
      "title": "Level 1- Intro Worlds"
    },
    "generator": "Sketchfab-11.53.2",
    "version": "2.0"
  },
  "bufferViews": [
    {
      "buffer": 0,
      "byteLength": 20760,
      "name": "floatBufferViews",
      "target": 34963
    },
    {
      "buffer": 0,
      "byteLength": 27424,
      "byteOffset": 20760,
      "byteStride": 8,
      "name": "floatBufferViews",
      "target": 34962
    },
    {
      "buffer": 0,
      "byteLength": 82272,
      "byteOffset": 48184,
      "byteStride": 12,
      "name": "floatBufferViews",
      "target": 34962
    }
  ],
  "buffers": [
    {
      "byteLength": 130456,
      "uri": "scene.bin"
    }
  ],
  "materials": [
    {
      "doubleSided": true,
      "name": "center",
      "pbrMetallicRoughness": {
        "baseColorFactor": [
          0.0995742,
          0.0995742,
          0.0995742,
          1.0
        ],
        "metallicFactor": 0.0,
        "roughnessFactor": 0.5
      }
    },
    {
      "doubleSided": true,
      "emissiveFactor": [
        1.0,
        1.0,
        1.0
      ],
      "name": "center-light",
      "pbrMetallicRoughness": {
        "baseColorFactor": [
          0.8,
          0.8,
          0.8,
          1.0
        ],
        "metallicFactor": 0.0,
        "roughnessFactor": 0.5
      }
    },
    {
      "doubleSided": true,
      "name": "Cube",
      "pbrMetallicRoughness": {
        "baseColorFactor": [
          0.0469625,
          0.0469625,
          0.0469625,
          1.0
        ],
        "metallicFactor": 0.0,
        "roughnessFactor": 0.5
      }
    },
    {
      "doubleSided": true,
      "emissiveFactor": [
        1.0,
        1.0,
        1.0
      ],
      "name": "Cube-Light",
      "pbrMetallicRoughness": {
        "baseColorFactor": [
          0.8,
          0.8,
          0.8,
          1.0
        ],
        "metallicFactor": 0.0,
        "roughnessFactor": 0.5
      }
    },
    {
      "doubleSided": true,
      "name": "Cylinder",
      "pbrMetallicRoughness": {
        "baseColorFactor": [
          0.0637219,
          0.0637219,
          0.0637219,
          1.0
        ],
        "metallicFactor": 0.0,
        "roughnessFactor": 0.5
      }
    },
    {
      "doubleSided": true,
      "emissiveFactor": [
        1.0,
        1.0,
        1.0
      ],
      "name": "Cylinder-Light",
      "pbrMetallicRoughness": {
        "baseColorFactor": [
          0.8,
          0.8,
          0.8,
          1.0
        ],
        "metallicFactor": 0.0,
        "roughnessFactor": 0.5
      }
    },
    {
      "doubleSided": true,
      "name": "Icosphere",
      "pbrMetallicRoughness": {
        "baseColorFactor": [
          0.0597391,
          0.0597391,
          0.0597391,
          1.0
        ],
        "metallicFactor": 0.0,
        "roughnessFactor": 0.5
      }
    },
    {
      "doubleSided": true,
      "emissiveFactor": [
        1.0,
        1.0,
        1.0
      ],
      "name": "Icosphere-Light",
      "pbrMetallicRoughness": {
        "baseColorFactor": [
          0.8,
          0.8,
          0.8,
          1.0
        ],
        "metallicFactor": 0.0,
        "roughnessFactor": 0.5
      }
    },
    {
      "doubleSided": true,
      "name": "Cone",
      "pbrMetallicRoughness": {
        "baseColorFactor": [
          0.0110881,
          0.0110881,
          0.0110881,
          1.0
        ],
        "metallicFactor": 0.0,
        "roughnessFactor": 0.5
      }
    },
    {
      "doubleSided": true,
      "emissiveFactor": [
        1.0,
        1.0,
        1.0
      ],
      "name": "Cone-Light",
      "pbrMetallicRoughness": {
        "baseColorFactor": [
          0.8,
          0.8,
          0.8,
          1.0
        ],
        "metallicFactor": 0.0,
        "roughnessFactor": 0.5
      }
    }
  ],
  "meshes": [
    {
      "name": "Object_0",
      "primitives": [
        {
          "attributes": {
            "NORMAL": 1,
            "POSITION": 0,
            "TEXCOORD_0": 2
          },
          "indices": 3,
          "material": 0,
          "mode": 4
        }
      ]
    },
    {
      "name": "Object_1",
      "primitives": [
        {
          "attributes": {
            "NORMAL": 5,
            "POSITION": 4,
            "TEXCOORD_0": 6
          },
          "indices": 7,
          "material": 1,
          "mode": 4
        }
      ]
    },
    {
      "name": "Object_2",
      "primitives": [
        {
          "attributes": {
            "NORMAL": 9,
            "POSITION": 8,
            "TEXCOORD_0": 10
          },
          "indices": 11,
          "material": 2,
          "mode": 4
        }
      ]
    },
    {
      "name": "Object_3",
      "primitives": [
        {
          "attributes": {
            "NORMAL": 13,
            "POSITION": 12,
            "TEXCOORD_0": 14
          },
          "indices": 15,
          "material": 3,
          "mode": 4
        }
      ]
    },
    {
      "name": "Object_4",
      "primitives": [
        {
          "attributes": {
            "NORMAL": 17,
            "POSITION": 16,
            "TEXCOORD_0": 18
          },
          "indices": 19,
          "material": 4,
          "mode": 4
        }
      ]
    },
    {
      "name": "Object_5",
      "primitives": [
        {
          "attributes": {
            "NORMAL": 21,
            "POSITION": 20,
            "TEXCOORD_0": 22
          },
          "indices": 23,
          "material": 5,
          "mode": 4
        }
      ]
    },
    {
      "name": "Object_6",
      "primitives": [
        {
          "attributes": {
            "NORMAL": 25,
            "POSITION": 24,
            "TEXCOORD_0": 26
          },
          "indices": 27,
          "material": 6,
          "mode": 4
        }
      ]
    },
    {
      "name": "Object_7",
      "primitives": [
        {
          "attributes": {
            "NORMAL": 29,
            "POSITION": 28,
            "TEXCOORD_0": 30
          },
          "indices": 31,
          "material": 7,
          "mode": 4
        }
      ]
    },
    {
      "name": "Object_8",
      "primitives": [
        {
          "attributes": {
            "NORMAL": 33,
            "POSITION": 32,
            "TEXCOORD_0": 34
          },
          "indices": 35,
          "material": 8,
          "mode": 4
        }
      ]
    },
    {
      "name": "Object_9",
      "primitives": [
        {
          "attributes": {
            "NORMAL": 37,
            "POSITION": 36,
            "TEXCOORD_0": 38
          },
          "indices": 39,
          "material": 9,
          "mode": 4
        }
      ]
    }
  ],
  "nodes": [
    {
      "children": [
        1
      ],
      "matrix": [
        1.0,
        0.0,
        0.0,
        0.0,
        0.0,
        2.220446049250313e-16,
        -1.0,
        0.0,
        0.0,
        1.0,
        2.220446049250313e-16,
        0.0,
        0.0,
        0.0,
        0.0,
        1.0
      ],
      "name": "Sketchfab_model"
    },
    {
      "children": [
        2
      ],
      "name": "root"
    },
    {
      "children": [
        3,
        6,
        9,
        12,
        15
      ],
      "matrix": [
        1.0,
        0.0,
        0.0,
        0.0,
        0.0,
        2.220446049250313e-16,
        1.0,
        0.0,
        0.0,
        -1.0,
        2.220446049250313e-16,
        0.0,
        0.0,
        0.0,
        0.0,
        1.0
      ],
      "name": "GLTF_SceneRootNode"
    },
    {
      "children": [
        4,
        5
      ],
      "matrix": [
        138.910400390625,
        0.0,
        0.0,
        0.0,
        0.0,
        108.56260681152344,
        0.0,
        0.0,
        0.0,
        0.0,
        138.910400390625,
        0.0,
        0.0,
        -1.4695744514465332,
        2.0559158325195313,
        1.0
      ],
      "name": "Center_0"
    },
    {
      "mesh": 0,
      "name": "Object_4"
    },
    {
      "mesh": 1,
      "name": "Object_5"
    },
    {
      "children": [
        7,
        8
      ],
      "matrix": [
        47.246498107910156,
        0.0,
        0.0,
        0.0,
        0.0,
        47.246498107910156,
        0.0,
        0.0,
        0.0,
        0.0,
        47.246498107910156,
        0.0,
        0.40078163146972656,
        28.464881896972656,
        232.70774841308594,
        1.0
      ],
      "name": "Cube_1"
    },
    {
      "mesh": 2,
      "name": "Object_7"
    },
    {
      "mesh": 3,
      "name": "Object_8"
    },
    {
      "children": [
        10,
        11
      ],
      "matrix": [
        -61.496081855667505,
        2.065180856422015,
        -14.087069876472926,
        -0.0,
        -2.089241591527728,
        -63.08800383546039,
        -0.12834222289453803,
        -0.0,
        14.083521512443172,
        -0.3412202270390539,
        -61.5306150126791,
        -0.0,
        233.92137145996094,
        19.93832778930664,
        2.9178946018218994,
        1.0
      ],
      "name": "Cylinder_2"
    },
    {
      "mesh": 4,
      "name": "Object_10"
    },
    {
      "mesh": 5,
      "name": "Object_11"
    },
    {
      "children": [
        13,
        14
      ],
      "matrix": [
        74.67939758300781,
        0.0,
        0.0,
        0.0,
        0.0,
        74.67939758300781,
        0.0,
        0.0,
        0.0,
        0.0,
        74.67939758300781,
        0.0,
        -247.3842315673828,
        22.830467224121094,
        1.9968724250793457,
        1.0
      ],
      "name": "Icosphere_3"
    },
    {
      "mesh": 6,
      "name": "Object_13"
    },
    {
      "mesh": 7,
      "name": "Object_14"
    },
    {
      "children": [
        16,
        17
      ],
      "matrix": [
        30.010854721069336,
        0.0,
        0.0,
        0.0,
        0.0,
        30.010854721069336,
        0.0,
        0.0,
        0.0,
        0.0,
        30.010854721069336,
        0.0,
        -0.6247689723968506,
        53.2017707824707,
        -206.22630310058594,
        1.0
      ],
      "name": "Cone_4"
    },
    {
      "mesh": 8,
      "name": "Object_16"
    },
    {
      "mesh": 9,
      "name": "Object_17"
    }
  ],
  "scene": 0,
  "scenes": [
    {
      "name": "Sketchfab_Scene",
      "nodes": [
        0
      ]
    }
  ]
}
