{
  "accessors": [
    {
      "bufferView": 2,
      "componentType": 5126,
      "count": 2466,
      "max": [
        1.3735846281051636,
        0.10279811173677444,
        1.3735841512680054
      ],
      "min": [
        -1.3735846281051636,
        1.6283019022012013e-07,
        -1.3735851049423218
      ],
      "type": "VEC3"
    },
    {
      "bufferView": 2,
      "byteOffset": 29592,
      "componentType": 5126,
      "count": 2466,
      "max": [
        0.7497971653938293,
        1.0,
        0.716817319393158
      ],
      "min": [
        -0.6619742512702942,
        0.5241951942443848,
        -0.746102511882782
      ],
      "type": "VEC3"
    },
    {
      "bufferView": 1,
      "componentType": 5126,
      "count": 2466,
      "max": [
        1.0,
        1.0
      ],
      "min": [
        0.0,
        0.0
      ],
      "type": "VEC2"
    },
    {
      "bufferView": 0,
      "componentType": 5125,
      "count": 5916,
      "type": "SCALAR"
    },
    {
      "bufferView": 2,
      "byteOffset": 59184,
      "componentType": 5126,
      "count": 240,
      "max": [
        0.9443394541740417,
        0.20520730316638947,
        1.1160370111465454
      ],
      "min": [
        -1.201886534690857,
        1.6283019022012013e-07,
        -1.2018870115280151
      ],
      "type": "VEC3"
    },
    {
      "bufferView": 2,
      "byteOffset": 62064,
      "componentType": 5126,
      "count": 240,
      "max": [
        0.8017047643661499,
        1.0,
        0.8663129210472107
      ],
      "min": [
        -0.8608251214027405,
        0.38054126501083374,
        -0.8855177164077759
      ],
      "type": "VEC3"
    },
    {
      "bufferView": 1,
      "byteOffset": 19728,
      "componentType": 5126,
      "count": 240,
      "max": [
        0.84375,
        0.90625
      ],
      "min": [
        0.0625,
        0.0625
      ],
      "type": "VEC2"
    },
    {
      "bufferView": 0,
      "byteOffset": 23664,
      "componentType": 5125,
      "count": 312,
      "type": "SCALAR"
    },
    {
      "bufferView": 2,
      "byteOffset": 64944,
      "componentType": 5126,
      "count": 12,
      "max": [
        0.8660253882408142,
        1.0,
        0.5000000596046448
      ],
      "min": [
        -0.866025447845459,
        -1.0,
        -1.0
      ],
      "type": "VEC3"
    },
    {
      "bufferView": 2,
      "byteOffset": 65088,
      "componentType": 5126,
      "count": 12,
      "max": [
        0.8401681184768677,
        0.24253568053245544,
        0.9701424837112427
      ],
      "min": [
        -0.8401681184768677,
        -1.0,
        -0.4850713610649109
      ],
      "type": "VEC3"
    },
    {
      "bufferView": 1,
      "byteOffset": 21648,
      "componentType": 5126,
      "count": 12,
      "max": [
        0.9578461050987244,
        0.8700000047683716
      ],
      "min": [
        0.042153894901275635,
        0.5099999904632568
      ],
      "type": "VEC2"
    },
    {
      "bufferView": 0,
      "byteOffset": 24912,
      "componentType": 5125,
      "count": 12,
      "type": "SCALAR"
    },
    {
      "bufferView": 2,
      "byteOffset": 65232,
      "componentType": 5126,
      "count": 12,
      "max": [
        0.8660253882408142,
        1.0,
        0.5000000596046448
      ],
      "min": [
        -0.866025447845459,
        -1.0,
        -1.0
      ],
      "type": "VEC3"
    },
    {
      "bufferView": 2,
      "byteOffset": 65376,
      "componentType": 5126,
      "count": 12,
      "max": [
        0.8401681184768677,
        0.24253568053245544,
        0.9701424837112427
      ],
      "min": [
        -0.8401681184768677,
        -1.0,
        -0.4850713610649109
      ],
      "type": "VEC3"
    },
    {
      "bufferView": 1,
      "byteOffset": 21744,
      "componentType": 5126,
      "count": 12,
      "max": [
        0.9578461050987244,
        0.8700000047683716
      ],
      "min": [
        0.042153894901275635,
        0.5099999904632568
      ],
      "type": "VEC2"
    },
    {
      "bufferView": 0,
      "byteOffset": 24960,
      "componentType": 5125,
      "count": 12,
      "type": "SCALAR"
    },
    {
      "bufferView": 2,
      "byteOffset": 65520,
      "componentType": 5126,
      "count": 12,
      "max": [
        0.8660253882408142,
        1.0,
        0.5000000596046448
      ],
      "min": [
        -0.866025447845459,
        -1.0,
        -1.0
      ],
      "type": "VEC3"
    },
    {
      "bufferView": 2,
      "byteOffset": 65664,
      "componentType": 5126,
      "count": 12,
      "max": [
        0.8401681184768677,
        0.24253568053245544,
        0.9701424837112427
      ],
      "min": [
        -0.8401681184768677,
        -1.0,
        -0.4850713610649109
      ],
      "type": "VEC3"
    },
    {
      "bufferView": 1,
      "byteOffset": 21840,
      "componentType": 5126,
      "count": 12,
      "max": [
        0.9578461050987244,
        0.8700000047683716
      ],
      "min": [
        0.042153894901275635,
        0.5099999904632568
      ],
      "type": "VEC2"
    },
    {
      "bufferView": 0,
      "byteOffset": 25008,
      "componentType": 5125,
      "count": 12,
      "type": "SCALAR"
    },
    {
      "bufferView": 2,
      "byteOffset": 65808,
      "componentType": 5126,
      "count": 12,
      "max": [
        0.8660253882408142,
        1.0,
        0.5000000596046448
      ],
      "min": [
        -0.866025447845459,
        -1.0,
        -1.0
      ],
      "type": "VEC3"
    },
    {
      "bufferView": 2,
      "byteOffset": 65952,
      "componentType": 5126,
      "count": 12,
      "max": [
        0.8401681184768677,
        0.24253568053245544,
        0.9701424837112427
      ],
      "min": [
        -0.8401681184768677,
        -1.0,
        -0.4850713610649109
      ],
      "type": "VEC3"
    },
    {
      "bufferView": 1,
      "byteOffset": 21936,
      "componentType": 5126,
      "count": 12,
      "max": [
        0.9578461050987244,
        0.8700000047683716
      ],
      "min": [
        0.042153894901275635,
        0.5099999904632568
      ],
      "type": "VEC2"
    },
    {
      "bufferView": 0,
      "byteOffset": 25056,
      "componentType": 5125,
      "count": 12,
      "type": "SCALAR"
    },
    {
      "bufferView": 2,
      "byteOffset": 66096,
      "componentType": 5126,
      "count": 48,
      "max": [
        1.1951152086257935,
        1.8447880744934082,
        1.195115327835083
      ],
      "min": [
        -1.1951152086257935,
        -1.8447887897491455,
        -1.195115089416504
      ],
      "type": "VEC3"
    },
    {
      "bufferView": 2,
      "byteOffset": 66672,
      "componentType": 5126,
      "count": 48,
      "max": [
        0.6428659558296204,
        0.41646990180015564,
        0.6428660154342651
      ],
      "min": [
        -0.6428659558296204,
        -0.4164699912071228,
        -0.6428658962249756
      ],
      "type": "VEC3"
    },
    {
      "bufferView": 1,
      "byteOffset": 22032,
      "componentType": 5126,
      "count": 48,
      "max": [
        1.0,
        1.0
      ],
      "min": [
        0.0,
        0.0
      ],
      "type": "VEC2"
    },
    {
      "bufferView": 0,
      "byteOffset": 25104,
      "componentType": 5125,
      "count": 48,
      "type": "SCALAR"
    }
  ],
  "asset": {
    "extras": {
      "author": "Nick Anderson Azemar (https://sketchfab.com/newnick1996)",
      "license": "CC-BY-4.0 (http://creativecommons.org/licenses/by/4.0/)",
      "source": "https://sketchfab.com/3d-models/level-3-cone-world-cac2a822c3634303892ac3cd305a2177",
      "title": "Level 3 - Cone world"
    },
    "generator": "Sketchfab-11.53.2",
    "version": "2.0"
  },
  "bufferViews": [
    {
      "buffer": 0,
      "byteLength": 25296,
      "name": "floatBufferViews",
      "target": 34963
    },
    {
      "buffer": 0,
      "byteLength": 22416,
      "byteOffset": 25296,
      "byteStride": 8,
      "name": "floatBufferViews",
      "target": 34962
    },
    {
      "buffer": 0,
      "byteLength": 67248,
      "byteOffset": 47712,
      "byteStride": 12,
      "name": "floatBufferViews",
      "target": 34962
    }
  ],
  "buffers": [
    {
      "byteLength": 114960,
      "uri": "scene.bin"
    }
  ],
  "materials": [
    {
      "doubleSided": true,
      "name": "Floor",
      "pbrMetallicRoughness": {
        "baseColorFactor": [
          0.035940700000000006,
          0.008943150000000002,
          0.0,
          1.0
        ],
        "metallicFactor": 0.0,
        "roughnessFactor": 0.5
      }
    },
    {
      "doubleSided": true,
      "emissiveFactor": [
        0.7467712121027861,
        0.7467712121027861,
        0.7467712121027861
      ],
      "name": "Floor-light",
      "pbrMetallicRoughness": {
        "baseColorFactor": [
          0.8,
          0.8,
          0.8,
          1.0
        ],
        "metallicFactor": 0.0,
        "roughnessFactor": 0.5
      }
    },
    {
      "doubleSided": true,
      "emissiveFactor": [
        0.819559,
        0.836645,
        0.163253
      ],
      "name": "Cone_guard",
      "pbrMetallicRoughness": {
        "baseColorFactor": [
          0.8,
          0.8,
          0.8,
          1.0
        ],
        "metallicFactor": 0.0,
        "roughnessFactor": 0.5
      }
    },
    {
      "doubleSided": true,
      "emissiveFactor": [
        1.0,
        1.0,
        1.0
      ],
      "name": "Cone_sun",
      "pbrMetallicRoughness": {
        "baseColorFactor": [
          0.9471537547215789,
          0.9471537547215789,
          0.9471537547215789,
          1.0
        ],
        "metallicFactor": 0.0,
        "roughnessFactor": 0.33614205450631773
      }
    }
  ],
  "meshes": [
    {
      "name": "Object_0",
      "primitives": [
        {
          "attributes": {
            "NORMAL": 1,
            "POSITION": 0,
            "TEXCOORD_0": 2
          },
          "indices": 3,
          "material": 0,
          "mode": 4
        }
      ]
    },
    {
      "name": "Object_1",
      "primitives": [
        {
          "attributes": {
            "NORMAL": 5,
            "POSITION": 4,
            "TEXCOORD_0": 6
          },
          "indices": 7,
          "material": 1,
          "mode": 4
        }
      ]
    },
    {
      "name": "Object_2",
      "primitives": [
        {
          "attributes": {
            "NORMAL": 9,
            "POSITION": 8,
            "TEXCOORD_0": 10
          },
          "indices": 11,
          "material": 2,
          "mode": 4
        }
      ]
    },
    {
      "name": "Object_3",
      "primitives": [
        {
          "attributes": {
            "NORMAL": 13,
            "POSITION": 12,
            "TEXCOORD_0": 14
          },
          "indices": 15,
          "material": 2,
          "mode": 4
        }
      ]
    },
    {
      "name": "Object_4",
      "primitives": [
        {
          "attributes": {
            "NORMAL": 17,
            "POSITION": 16,
            "TEXCOORD_0": 18
          },
          "indices": 19,
          "material": 2,
          "mode": 4
        }
      ]
    },
    {
      "name": "Object_5",
      "primitives": [
        {
          "attributes": {
            "NORMAL": 21,
            "POSITION": 20,
            "TEXCOORD_0": 22
          },
          "indices": 23,
          "material": 2,
          "mode": 4
        }
      ]
    },
    {
      "name": "Object_6",
      "primitives": [
        {
          "attributes": {
            "NORMAL": 25,
            "POSITION": 24,
            "TEXCOORD_0": 26
          },
          "indices": 27,
          "material": 3,
          "mode": 4
        }
      ]
    }
  ],
  "nodes": [
    {
      "children": [
        1
      ],
      "matrix": [
        0.05987613648176193,
        0.0,
        0.0,
        0.0,
        0.0,
        1.3295173069530082e-17,
        -0.05987613648176193,
        0.0,
        0.0,
        0.05987613648176193,
        1.3295173069530082e-17,
        0.0,
        0.0,
        0.0,
        0.0,
        1.0
      ],
      "name": "Sketchfab_model"
    },
    {
      "children": [
        2
      ],
      "name": "root"
    },
    {
      "children": [
        3,
        6,
        8,
        10,
        12,
        14
      ],
      "matrix": [
        1.0,
        0.0,
        0.0,
        0.0,
        0.0,
        2.220446049250313e-16,
        1.0,
        0.0,
        0.0,
        -1.0,
        2.220446049250313e-16,
        0.0,
        0.0,
        0.0,
        0.0,
        1.0
      ],
      "name": "GLTF_SceneRootNode"
    },
    {
      "children": [
        4,
        5
      ],
      "matrix": [
        226.4654998779297,
        0.0,
        0.0,
        0.0,
        0.0,
        226.4654998779297,
        0.0,
        0.0,
        0.0,
        0.0,
        226.4654998779297,
        0.0,
        3.218003511428833,
        13.677072525024414,
        277.524658203125,
        1.0
      ],
      "name": "Floor_0"
    },
    {
      "mesh": 0,
      "name": "Object_4"
    },
    {
      "mesh": 1,
      "name": "Object_5"
    },
    {
      "children": [
        7
      ],
      "matrix": [
        -0.03584221495781379,
        0.0,
        -16.43116093519322,
        0.0,
        0.0,
        16.43120002746582,
        0.0,
        0.0,
        16.43116093519322,
        0.0,
        -0.03584221495781379,
        0.0,
        -286.5962219238281,
        29.551603317260742,
        -18.625194549560547,
        1.0
      ],
      "name": "Cone guard 2_1"
    },
    {
      "mesh": 2,
      "name": "Object_7"
    },
    {
      "children": [
        9
      ],
      "matrix": [
        -0.03584221495781379,
        0.0,
        -16.43116093519322,
        0.0,
        0.0,
        16.43120002746582,
        0.0,
        0.0,
        16.43116093519322,
        0.0,
        -0.03584221495781379,
        0.0,
        302.0964050292969,
        29.551603317260742,
        -17.724197387695313,
        1.0
      ],
      "name": "Cone guard 1_2"
    },
    {
      "mesh": 3,
      "name": "Object_9"
    },
    {
      "children": [
        11
      ],
      "matrix": [
        -0.03584221495781379,
        0.0,
        -16.43116093519322,
        0.0,
        0.0,
        16.43120002746582,
        0.0,
        0.0,
        16.43116093519322,
        0.0,
        -0.03584221495781379,
        0.0,
        -286.5962219238281,
        29.551603317260742,
        570.6263427734375,
        1.0
      ],
      "name": "Cone guard 4_3"
    },
    {
      "mesh": 4,
      "name": "Object_11"
    },
    {
      "children": [
        13
      ],
      "matrix": [
        -0.03584221495781379,
        0.0,
        -16.43116093519322,
        0.0,
        0.0,
        16.43120002746582,
        0.0,
        0.0,
        16.43116093519322,
        0.0,
        -0.03584221495781379,
        0.0,
        297.2492980957031,
        29.551603317260742,
        570.6263427734375,
        1.0
      ],
      "name": "Cone guard 3_4"
    },
    {
      "mesh": 5,
      "name": "Object_13"
    },
    {
      "children": [
        15
      ],
      "matrix": [
        13.381681442260742,
        0.0,
        0.0,
        0.0,
        0.0,
        13.381681442260742,
        0.0,
        0.0,
        0.0,
        0.0,
        13.381681442260742,
        0.0,
        -4.369060516357422,
        92.57797241210938,
        262.04705810546875,
        1.0
      ],
      "name": "Cone sun_5"
    },
    {
      "mesh": 6,
      "name": "Object_15"
    }
  ],
  "scene": 0,
  "scenes": [
    {
      "name": "Sketchfab_Scene",
      "nodes": [
        0
      ]
    }
  ]
}
